<svg xmlns="http://www.w3.org/2000/svg" version="1.1" xmlns:xlink="http://www.w3.org/1999/xlink" xmlns:svgjs="http://svgjs.dev/svgjs" width="1440" height="560" preserveAspectRatio="none" viewBox="0 0 1440 560"><g mask="url(&quot;#SvgjsMask1038&quot;)" fill="none"><rect width="1440" height="560" x="0" y="0" fill="rgba(255, 255, 255, 1)"></rect><path d="M1162.506,171.054C1186.113,172.515,1208.224,158.945,1220.173,138.533C1232.247,117.908,1233.417,91.876,1220.702,71.64C1208.672,52.494,1185.105,45.977,1162.506,46.755C1141.415,47.481,1120.957,56.891,1110.859,75.421C1101.132,93.271,1106.346,114.201,1116.006,132.087C1126.306,151.158,1140.872,169.715,1162.506,171.054" fill="rgba(28, 83, 142, 0.4)" class="triangle-float3"></path><path d="M180.458,189.352C197.679,188.757,211.849,176.872,219.948,161.663C227.541,147.404,227.85,130.144,219.281,116.449C211.18,103.502,195.718,99.173,180.458,98.552C163.679,97.869,145.133,99.125,135.744,113.048C125.454,128.308,126.638,148.685,135.943,164.564C145.146,180.269,162.266,189.98,180.458,189.352" fill="rgba(28, 83, 142, 0.4)" class="triangle-float2"></path><path d="M592.408,220.681C634.455,223.372,680.642,209.356,699.73,171.795C717.77,136.295,693.08,97.669,672.129,63.805C652.737,32.462,629.233,-0.137,592.408,-1.671C553.49,-3.292,518.613,22.274,500.285,56.645C482.975,89.107,488.487,127.353,506.501,159.43C524.958,192.296,554.791,218.274,592.408,220.681" fill="rgba(28, 83, 142, 0.4)" class="triangle-float1"></path><path d="M409.947,507.609C432.621,506.15,449.299,488.957,460.724,469.317C472.233,449.533,479.252,426.356,469.165,405.811C457.92,382.907,435.45,365.094,409.947,365.891C385.441,366.657,369.007,388.053,356.812,409.323C344.704,430.442,334.859,455.254,346.436,476.669C358.439,498.872,384.759,509.229,409.947,507.609" fill="rgba(28, 83, 142, 0.4)" class="triangle-float1"></path><path d="M506.577,489.747C562.05,488.226,595.603,433.075,619.326,382.907C639.13,341.027,638.728,294.877,618.417,253.241C594.764,204.753,560.447,154.71,506.577,151.773C449.04,148.636,398.07,188.689,371.413,239.774C346.615,287.298,357.085,342.247,382.582,389.4C409.688,439.529,449.61,491.309,506.577,489.747" fill="rgba(28, 83, 142, 0.4)" class="triangle-float1"></path><path d="M67.132,424.15C114.983,422.476,152.793,387.34,175.367,345.116C196.537,305.518,200.127,257.669,176.576,219.439C154.028,182.836,110.092,171.047,67.132,169.417C20.207,167.637,-31.705,171.448,-57.707,210.551C-85.927,252.989,-80.779,309.176,-55.063,353.176C-29.588,396.763,16.677,425.915,67.132,424.15" fill="rgba(28, 83, 142, 0.4)" class="triangle-float2"></path><path d="M311.848,567.449C337.083,568.717,358.06,548.381,368.791,525.506C378.092,505.678,370.629,483.98,359.982,464.841C348.922,444.961,334.597,423.135,311.848,423.154C289.118,423.173,273.9,444.532,263.856,464.922C255.123,482.652,255.645,502.342,264.024,520.242C274.202,541.986,287.87,566.244,311.848,567.449" fill="rgba(28, 83, 142, 0.4)" class="triangle-float2"></path><path d="M39.357,486.751C67.005,487.923,97.108,484.184,112.469,461.166C129.267,435.994,129.249,401.964,112.955,376.463C97.687,352.566,67.634,344.595,39.357,346.739C14.777,348.603,-4.774,365.012,-17.155,386.328C-29.604,407.761,-35.907,433.789,-23.751,455.39C-11.404,477.331,14.203,485.684,39.357,486.751" fill="rgba(28, 83, 142, 0.4)" class="triangle-float2"></path><path d="M1140.596,755.22C1200.544,760.041,1267.675,747.569,1298.047,695.659C1328.618,643.409,1304.161,580.218,1273.539,527.999C1243.383,476.576,1200.198,428.325,1140.596,427.162C1079.404,425.968,1024.969,467.516,998.349,522.628C974.638,571.718,993.203,626.922,1021.646,673.43C1048.554,717.428,1089.188,751.086,1140.596,755.22" fill="rgba(28, 83, 142, 0.4)" class="triangle-float1"></path><path d="M44.363,143.75C78.956,143.662,114.448,129.385,129.941,98.455C144.331,69.727,128.909,37.26,111.1,10.516C95.634,-12.709,72.257,-29.36,44.363,-30.054C15.197,-30.78,-12.153,-17.197,-28.385,7.046C-46.84,34.609,-57.558,69.611,-41.975,98.894C-25.645,129.58,9.603,143.839,44.363,143.75" fill="rgba(28, 83, 142, 0.4)" class="triangle-float3"></path></g><defs><mask id="SvgjsMask1038"><rect width="1440" height="560" fill="#ffffff"></rect></mask><style>
                @keyframes float1 {
                    0%{transform: translate(0, 0)}
                    50%{transform: translate(-10px, 0)}
                    100%{transform: translate(0, 0)}
                }

                .triangle-float1 {
                    animation: float1 5s infinite;
                }

                @keyframes float2 {
                    0%{transform: translate(0, 0)}
                    50%{transform: translate(-5px, -5px)}
                    100%{transform: translate(0, 0)}
                }

                .triangle-float2 {
                    animation: float2 4s infinite;
                }

                @keyframes float3 {
                    0%{transform: translate(0, 0)}
                    50%{transform: translate(0, -10px)}
                    100%{transform: translate(0, 0)}
                }

                .triangle-float3 {
                    animation: float3 6s infinite;
                }
            </style></defs></svg>