<svg id="visual" viewBox="0 0 1920 1080" width="1920" height="1080" xmlns="http://www.w3.org/2000/svg" xmlns:xlink="http://www.w3.org/1999/xlink" version="1.1"><rect x="0" y="0" width="1920" height="1080" fill="#FFFFFF"></rect><path d="M0 361L45.7 354C91.3 347 182.7 333 274.2 363C365.7 393 457.3 467 548.8 534.3C640.3 601.7 731.7 662.3 823 675.5C914.3 688.7 1005.7 654.3 1097 629.5C1188.3 604.7 1279.7 589.3 1371.2 567.3C1462.7 545.3 1554.3 516.7 1645.8 543.2C1737.3 569.7 1828.7 651.3 1874.3 692.2L1920 733L1920 1081L1874.3 1081C1828.7 1081 1737.3 1081 1645.8 1081C1554.3 1081 1462.7 1081 1371.2 1081C1279.7 1081 1188.3 1081 1097 1081C1005.7 1081 914.3 1081 823 1081C731.7 1081 640.3 1081 548.8 1081C457.3 1081 365.7 1081 274.2 1081C182.7 1081 91.3 1081 45.7 1081L0 1081Z" fill="#0066FF" stroke-linecap="round" stroke-linejoin="miter"></path></svg>